<?xml version="1.0" standalone="no"?><!DOCTYPE svg PUBLIC "-//W3C//DTD SVG 1.1//EN" "http://www.w3.org/Graphics/SVG/1.1/DTD/svg11.dtd"><svg class="icon" width="64px" height="64.00px" viewBox="0 0 1024 1024" version="1.1" xmlns="http://www.w3.org/2000/svg"><path d="M155.818667 520.533333a118.101333 118.101333 0 0 0-25.6 62.634667 92.16 92.16 0 0 0 25.6 56.832 99.84 99.84 0 0 0-25.6 62.634667 71.168 71.168 0 0 0 28.501333 59.733333s-38.058667 69.290667-14.165333 93.866667c42.666667 44.032 102.4-19.968 102.4-19.968s9.898667 46.933333 48.64 45.056c56.832-2.730667 62.293333-47.957333 62.293333-47.957334s11.434667 48.298667 76.8 48.298667h90.965333V514.901333z" fill="#D35BE8" /><path d="M868.181333 520.533333a118.101333 118.101333 0 0 1 25.6 62.634667 92.16 92.16 0 0 1-25.6 56.832 99.84 99.84 0 0 1 25.6 62.634667 71.168 71.168 0 0 1-28.501333 59.733333s38.058667 69.290667 14.165333 93.866667c-42.666667 44.032-102.4-19.968-102.4-19.968s-9.898667 46.933333-48.64 45.056c-56.832-2.56-62.805333-47.957333-62.805333-47.957334s-11.434667 48.298667-76.8 48.298667h-90.282667V514.901333zM140.629333 372.565333S112.298667 0 516.437333 0c396.458667 0 363.861333 382.634667 363.861334 382.634667z" fill="#D35BE8" /><path d="M597.333333 682.666667l-85.333333 1.024-85.333333-1.024s17.066667 79.36-37.376 100.522666c0 0 6.997333 74.410667 121.685333 74.410667s122.709333-74.410667 122.709333-74.410667C579.413333 762.538667 597.333333 682.666667 597.333333 682.666667z" fill="#FFEDE1" /><path d="M516.949333 758.101333a182.784 182.784 0 0 0 80.725334-17.066666A139.946667 139.946667 0 0 1 597.333333 682.666667l-85.333333 1.024-85.333333-1.024a136.533333 136.533333 0 0 1-1.536 59.733333 197.461333 197.461333 0 0 0 91.818666 15.701333z" fill="#FFCFAE" /><path d="M97.621333 439.978667a112.469333 108.885333 0 1 0 224.938667 0 112.469333 108.885333 0 1 0-224.938667 0Z" fill="#FFEDE1" /><path d="M706.730667 439.978667a109.909333 108.885333 0 1 0 219.818666 0 109.909333 108.885333 0 1 0-219.818666 0Z" fill="#FFEDE1" /><path d="M152.064 439.978667a46.933333 45.397333 0 1 0 93.866667 0 46.933333 45.397333 0 1 0-93.866667 0Z" fill="#FFCFAE" /><path d="M778.069333 439.978667a46.933333 45.397333 0 1 0 93.866667 0 46.933333 45.397333 0 1 0-93.866667 0Z" fill="#FFCFAE" /><path d="M225.962667 274.602667S140.970667 443.733333 204.8 584.021333c86.528 189.269333 529.066667 190.293333 617.301333-5.802666 61.269333-136.533333-32.256-305.493333-32.256-305.493334z" fill="#FFEDE1" /><path d="M397.141333 443.733333l20.821334-18.944a34.133333 34.133333 0 0 0-28.16-15.36 36.693333 36.693333 0 1 0 34.133333 40.106667zM593.749333 457.045333a8.533333 8.533333 0 0 1-6.314666-14.165333A72.021333 72.021333 0 0 1 665.6 426.666667a8.533333 8.533333 0 1 1-5.802667 16.042666 55.296 55.296 0 0 0-59.904 11.605334 8.533333 8.533333 0 0 1-6.144 2.730666z" fill="#302B28" /><path d="M486.570667 530.261333a25.429333 15.36 0 1 0 50.858666 0 25.429333 15.36 0 1 0-50.858666 0Z" fill="#FFCFAE" /><path d="M733.866667 546.133333a8.533333 8.533333 0 0 1-7.509334-4.608l-8.533333-17.066666a8.533333 8.533333 0 1 1 15.189333-7.850667l8.533334 17.066667a8.533333 8.533333 0 0 1-3.754667 11.434666 8.362667 8.362667 0 0 1-3.925333 1.024zM778.410667 546.133333a8.533333 8.533333 0 0 1-7.509334-4.608l-8.533333-17.066666a8.533333 8.533333 0 1 1 15.189333-7.850667l8.533334 17.066667a8.533333 8.533333 0 0 1-3.754667 11.434666 8.362667 8.362667 0 0 1-3.925333 1.024zM290.133333 546.133333a8.362667 8.362667 0 0 1-3.925333-1.024 8.533333 8.533333 0 0 1-3.754667-11.434666l8.533334-17.066667a8.533333 8.533333 0 1 1 15.189333 7.850667l-8.533333 17.066666A8.533333 8.533333 0 0 1 290.133333 546.133333zM245.589333 546.133333a8.362667 8.362667 0 0 1-3.925333-1.024 8.533333 8.533333 0 0 1-3.754667-11.434666l8.533334-17.066667a8.533333 8.533333 0 1 1 15.189333 7.850667l-8.533333 17.066666a8.533333 8.533333 0 0 1-7.509334 4.608z" fill="#FF4545" /><path d="M777.898667 938.666667l-25.088-69.632A132.778667 132.778667 0 0 0 631.466667 781.312c-4.437333 38.912-55.808 69.802667-119.466667 69.802667s-114.346667-30.72-119.466667-69.802667a132.778667 132.778667 0 0 0-122.026666 87.552L246.101333 938.666667a32.768 32.768 0 0 0 13.653334 39.082666C290.133333 996.522667 360.96 1024 512 1024s221.866667-27.477333 252.074667-46.592a32.768 32.768 0 0 0 13.824-38.741333z" fill="#C2A6FF" /><path d="M481.621333 580.266667a7.850667 7.850667 0 0 0-7.850666 8.192c2.048 37.888 17.066667 67.242667 36.693333 67.242666s34.133333-29.525333 36.693333-67.242666a7.850667 7.850667 0 0 0-7.850666-8.192z" fill="#FF4545" /><path d="M495.616 637.098667a15.018667 12.117333 0 1 0 30.037333 0 15.018667 12.117333 0 1 0-30.037333 0Z" fill="#FF9999" /><path d="M203.605333 331.776s26.112 69.290667 119.466667 53.76a87.210667 87.210667 0 0 0 66.56-54.784 90.112 90.112 0 0 0 92.16 27.648 62.634667 62.634667 0 0 0 49.322667-65.365333s35.498667 48.298667 86.357333 41.984a76.117333 76.117333 0 0 0 62.976-42.666667 88.917333 88.917333 0 0 0 62.976 55.466667 113.493333 113.493333 0 0 0 82.602667-17.066667s72.874667-163.157333-295.424-163.157333-326.997333 164.181333-326.997334 164.181333z" fill="#D35BE8" /></svg>